<?xml version="1.0" encoding="utf-8"?>
<!-- Generator: Adobe Illustrator 16.0.4, SVG Export Plug-In . SVG Version: 6.00 Build 0)  -->
<!DOCTYPE svg PUBLIC "-//W3C//DTD SVG 1.1//EN" "http://www.w3.org/Graphics/SVG/1.1/DTD/svg11.dtd">
<svg version="1.1" xmlns="http://www.w3.org/2000/svg" xmlns:xlink="http://www.w3.org/1999/xlink" x="0px" y="0px" width="1024px"
	 height="1024px" viewBox="0 0 1024 1024" enable-background="new 0 0 1024 1024" xml:space="preserve">
<g id="Layer_3" display="none">
	<linearGradient id="SVGID_1_" gradientUnits="userSpaceOnUse" x1="-266.915" y1="982.5791" x2="305.7175" y2="409.9466">
		<stop  offset="0.2307" style="stop-color:#6B27FF"/>
		<stop  offset="0.8408" style="stop-color:#2E1DA9"/>
	</linearGradient>
	<polygon display="inline" fill="url(#SVGID_1_)" points="395.196,1268.867 123.689,1373.184 -356.395,123.658 -84.888,19.341 	"/>
	<linearGradient id="SVGID_2_" gradientUnits="userSpaceOnUse" x1="553.085" y1="748.5791" x2="1125.7175" y2="175.9466">
		<stop  offset="0.2307" style="stop-color:#6B27FF"/>
		<stop  offset="0.8408" style="stop-color:#2E1DA9"/>
	</linearGradient>
	<polygon display="inline" fill="url(#SVGID_2_)" points="1215.195,1034.867 943.689,1139.184 463.605,-110.342 735.112,-214.659 	
		"/>
	<linearGradient id="SVGID_3_" gradientUnits="userSpaceOnUse" x1="569.7051" y1="300.4526" x2="-2.9278" y2="873.0855">
		<stop  offset="0.2307" style="stop-color:#BBA649"/>
		<stop  offset="0.8408" style="stop-color:#B4AE8E"/>
	</linearGradient>
	<polygon display="inline" fill="url(#SVGID_3_)" points="659.183,1159.373 387.676,1263.689 -92.408,14.163 179.099,-90.153 	"/>
	<linearGradient id="SVGID_4_" gradientUnits="userSpaceOnUse" x1="1413.7041" y1="126.4517" x2="841.0709" y2="699.0849">
		<stop  offset="0.2307" style="stop-color:#BBA649"/>
		<stop  offset="0.8408" style="stop-color:#B4AE8E"/>
	</linearGradient>
	<polygon display="inline" fill="url(#SVGID_4_)" points="1503.183,985.373 1231.676,1089.689 751.592,-159.837 1023.1,-264.153 	
		"/>
	<linearGradient id="SVGID_5_" gradientUnits="userSpaceOnUse" x1="277.0713" y1="819.085" x2="849.7045" y2="246.4517">
		<stop  offset="0.2307" style="stop-color:#BB4149"/>
		<stop  offset="0.8408" style="stop-color:#B47D8E"/>
	</linearGradient>
	<polygon display="inline" fill="url(#SVGID_5_)" points="939.183,1105.373 667.676,1209.689 187.592,-39.837 459.099,-144.153 	"/>
	<g id="Layer_4" display="inline">
		<rect x="-12.026" y="-7.503" fill="#823489" stroke="#000000" stroke-miterlimit="10" width="1055.947" height="1040.948"/>
	</g>
</g>
<g id="Layer_1" display="none">
	<path display="inline" fill="#90BBFF" d="M441.578,573.229c-55.792,12.65-121.902,32.859-183.585,59.298
		c34.966-69.933,0-209.81,0-209.81c67.939-20.674,131.514-22.011,182.299-16.663C452.981,459.096,456.904,524.525,441.578,573.229z"
		/>
	<path display="inline" fill="#90BBFF" d="M298.343,279.353c0,0,17.484,52.451,6.994,94.413
		C389.258,342.294,461.014,346.504,475,350c-10.49-38.464-3.408-67.398-3.408-67.398S385.762,254.875,298.343,279.353z"/>
	<path display="inline" fill="#90BBFF" d="M334,190c0,0,3.335,27.032-2.896,52.502c50.493-16.897,86.809-2.786,95.297-0.709
		C419.924,218.507,422,195,422,195S386.92,174.892,334,190z"/>
	<path display="inline" fill="#90BBFF" d="M473.688,384.878c0,0,34.968,139.87,0,209.804
		c122.387-52.449,262.256-80.423,304.218-73.43c-17.483-52.452-6.993-125.884-6.993-125.884S634.539,335.923,473.688,384.878z"/>
	<path display="inline" fill="#90BBFF" d="M514.044,241.51c0,0,17.484,52.451,6.993,94.413
		c83.922-31.471,157.354-10.49,171.341-6.994c-10.49-38.464-1.797-71.826-1.797-71.826S609.586,216.605,514.044,241.51z"/>
	<path display="inline" fill="#90BBFF" d="M549.5,158c0,0,2.036,27.19-4.195,52.66c50.781-16.553,86.811-2.787,95.297-0.709
		C634.125,186.664,631.5,162,631.5,162S602.42,142.891,549.5,158z"/>
	<path display="inline" fill="#90BBFF" d="M146.572,659.647c0,0,494.473,63.07,771.982-153.892
		c20.183-15.137-83.245,282.829-246.499,328.066c-157.039,43.517-502.778-56.313-533.052-74.878
		C166.755,712.626,146.572,659.647,146.572,659.647z"/>
</g>
<g id="Layer_2" display="none">
	<circle display="inline" fill="#FFFFFF" cx="506.091" cy="509.09" r="470.976"/>
	<path display="inline" fill="#90BBFF" d="M441.437,576.508c-52.707,11.95-115.162,31.042-173.434,56.019
		c33.033-66.065,0-198.208,0-198.208c64.183-19.531,124.242-20.794,172.219-15.742C452.209,468.686,455.915,530.497,441.437,576.508
		z"/>
	<path display="inline" fill="#90BBFF" d="M306.122,298.881c0,0,16.517,49.551,6.607,89.192
		c79.281-29.731,147.069-25.754,160.282-22.451c-9.91-36.337-3.219-63.671-3.219-63.671S388.707,275.757,306.122,298.881z"/>
	<path display="inline" fill="#90BBFF" d="M339.807,214.47c0,0,3.15,25.538-2.736,49.599c47.7-15.962,82.009-2.632,90.027-0.67
		c-6.119-21.998-4.158-44.205-4.158-44.205S389.801,200.197,339.807,214.47z"/>
	<path display="inline" fill="#90BBFF" d="M483.698,384.878c0,0,34.968,139.87,0,209.804
		c122.387-52.449,262.256-80.423,304.218-73.43c-17.483-52.452-6.993-125.884-6.993-125.884S644.549,335.923,483.698,384.878z"/>
	<path display="inline" fill="#90BBFF" d="M524.054,241.51c0,0,17.484,52.451,6.993,94.413
		c83.922-31.471,157.354-10.49,171.341-6.994c-10.49-38.464-1.797-71.826-1.797-71.826S619.596,216.605,524.054,241.51z"/>
	<path display="inline" fill="#90BBFF" d="M559.51,158c0,0,2.036,27.19-4.195,52.66c50.781-16.553,86.811-2.787,95.297-0.709
		c-6.477-23.286-9.102-47.95-9.102-47.95S612.43,142.891,559.51,158z"/>
	<path display="inline" fill="#90BBFF" d="M156.582,659.647c0,0,494.473,63.07,771.982-153.892
		c20.183-15.137-100.228,295.582-263.481,340.819c-157.039,43.517-485.795-69.066-516.069-87.631
		C176.765,712.626,156.582,659.647,156.582,659.647z"/>
</g>
<g id="Layer_5">
	<path fill="#FFFFFF" d="M506.091,38.114c-260.113,0-470.976,210.863-470.976,470.976c0,260.113,210.863,470.977,470.976,470.977
		c260.112,0,470.976-210.863,470.976-470.977C977.066,248.977,766.203,38.114,506.091,38.114z M559.51,158c52.92-15.109,82,4,82,4
		s2.625,24.665,9.102,47.95c-8.486-2.077-44.516-15.843-95.297,0.709C561.546,185.189,559.51,158,559.51,158z M700.591,257.103
		c0,0-8.693,33.362,1.797,71.826c-13.986-3.496-87.419-24.477-171.341,6.994c10.491-41.962-6.993-94.413-6.993-94.413
		C619.596,216.605,700.591,257.103,700.591,257.103z M483.698,384.878c160.851-48.955,297.225,10.49,297.225,10.49
		s-10.49,73.432,6.993,125.884c-41.962-6.993-181.831,20.98-304.218,73.43C518.666,524.748,483.698,384.878,483.698,384.878z
		 M339.807,214.47c49.994-14.273,83.134,4.724,83.134,4.724s-1.961,22.207,4.158,44.205c-8.019-1.962-42.327-15.292-90.027,0.67
		C342.958,240.007,339.807,214.47,339.807,214.47z M469.791,301.951c0,0-6.691,27.334,3.219,63.671
		c-13.213-3.303-81-7.28-160.282,22.451c9.91-39.642-6.607-89.192-6.607-89.192C388.707,275.757,469.791,301.951,469.791,301.951z
		 M268.002,434.318c64.183-19.531,124.242-20.794,172.219-15.742c11.987,50.109,15.693,111.921,1.215,157.932
		c-52.707,11.95-115.162,31.042-173.434,56.019C301.035,566.461,268.002,434.318,268.002,434.318z M665.083,846.574
		c-157.039,43.517-485.795-69.066-516.069-87.631c27.751-46.317,7.568-99.296,7.568-99.296s494.473,63.07,771.982-153.892
		C948.747,490.618,828.337,801.337,665.083,846.574z"/>
</g>
</svg>
